<svg xmlns="http://www.w3.org/2000/svg" width="43.955" height="64"><defs><style>.cls-1{fill:#3cb2f5}</style></defs><g id="telemarketer" transform="translate(-80.179)"><g id="Сгруппировать_122" transform="translate(80.179)"><g id="Сгруппировать_121"><path id="Контур_58" d="M119.51 35.678l-5.432-1.929a.934.934 0 00-.239-.408l-3.006-3.006a.939.939 0 00-.715-.273h-.008V27.5a10.938 10.938 0 002.829-5.587h1.238a2.945 2.945 0 002.941-2.941v-3.004a2.945 2.945 0 00-2.941-2.941h-.065V9.262a8.325 8.325 0 00-3.6-6.634 14.609 14.609 0 00-16.718 0 8.325 8.325 0 00-3.6 6.634v3.764h-.064a2.945 2.945 0 00-2.942 2.941v3.006a2.945 2.945 0 002.942 2.941h1.238a10.937 10.937 0 002.832 5.593v2.556h-.01a.939.939 0 00-.715.273l-3.006 3.006a.936.936 0 00-.24.41L84.8 35.678a6.918 6.918 0 00-4.618 6.827L81.01 63.1a.938.938 0 00.936.9h.038a.938.938 0 00.9-.974l-.825-20.596a5.1 5.1 0 01.266-1.848L85.7 43.96a5.041 5.041 0 011.486 3.588v15.515a.938.938 0 001.875 0V47.548a6.9 6.9 0 00-2.035-4.914L83.293 38.9a5.077 5.077 0 012.138-1.453l5.521-1.961 3.239 5.183a2.942 2.942 0 004.259.794l1.786-1.34.4.5a1.94 1.94 0 003.029 0l.4-.5 1.786 1.34a2.941 2.941 0 004.259-.794l3.24-5.184 5.525 1.962a5.077 5.077 0 012.138 1.453l-3.736 3.736a6.9 6.9 0 00-2.035 4.914v15.513a.938.938 0 001.875 0V47.548a5.041 5.041 0 011.486-3.588l3.377-3.377a5.1 5.1 0 01.266 1.848l-.825 20.595a.937.937 0 00.9.974h.038a.938.938 0 00.936-.9l.825-20.595a6.918 6.918 0 00-4.61-6.827zm-6.4-20.777h1.066a1.068 1.068 0 011.066 1.066v3.006a1.068 1.068 0 01-1.066 1.066h-1.066zM91.2 20.04h-1.07a1.068 1.068 0 01-1.066-1.066v-3.006A1.068 1.068 0 0190.13 14.9h1.07zm1.875-.064V14.9h.388a1.93 1.93 0 001.8-1.219.937.937 0 10-1.741-.7.064.064 0 01-.06.04H92.07V9.262c0-4.073 4.524-7.387 10.085-7.387s10.085 3.314 10.085 7.387v3.764h-1.39a.064.064 0 01-.06-.04l-1.248-3.121a2.928 2.928 0 00-2.731-1.849H97.5a2.952 2.952 0 00-2.537 1.452.937.937 0 001.617.949 1.07 1.07 0 01.92-.526h9.311a1.061 1.061 0 01.99.67l1.248 3.121a1.93 1.93 0 001.8 1.219h.388v4.073c0 2.751-4.159 5.075-9.083 5.075a.937.937 0 000 1.875 14.177 14.177 0 008.369-2.419 9.083 9.083 0 01-17.452-3.528zm4.254 19.985a1.066 1.066 0 01-1.544-.288l-3.458-5.533 1.734-1.74 5 6.255zm4.88-.507a.065.065 0 01-.1 0l-6.026-7.533V29.09a10.935 10.935 0 0012.158 0v2.829zm6.323.219a1.066 1.066 0 01-1.544.288l-1.739-1.3 5-6.255 1.738 1.738z" class="cls-1" transform="translate(-80.179)"/></g></g><g id="Сгруппировать_124" transform="translate(91.149 50.071)"><g id="Сгруппировать_123"><path id="Контур_59" d="M175.406 400.807h-6.131a.956.956 0 100 1.912h6.131a.956.956 0 100-1.912z" class="cls-1" transform="translate(-168.319 -400.807)"/></g></g></g></svg>