<svg xmlns="http://www.w3.org/2000/svg" id="appointment" width="54" height="54"><defs><style>.cls-1{fill:#3cb2f5}</style></defs><g id="Сгруппировать_126"><g id="Сгруппировать_125"><path id="Контур_61" d="M48.727 4.641H43.7V3.164a3.164 3.164 0 10-6.328 0v1.477h-17.72V3.164a3.164 3.164 0 10-6.328 0V4.68a1.052 1.052 0 00-.281-.039h-4.2a5.279 5.279 0 00-5.276 5.273v17.965a1.055 1.055 0 002.109 0V15.5H43.7a1.055 1.055 0 000-2.109H5.677V9.914A3.168 3.168 0 018.841 6.75h4.2a1.057 1.057 0 00.281-.039v1.357a3.164 3.164 0 106.328 0V6.75h17.721v1.318a3.164 3.164 0 106.328 0V6.75h5.027a3.168 3.168 0 013.164 3.164v40.078a1.9 1.9 0 01-3.8 0v-2.729a1.055 1.055 0 00-1.055-1.055H34.77a1.055 1.055 0 000 2.109h11.213v1.674a3.984 3.984 0 00.479 1.9H4.008a1.9 1.9 0 01-1.9-1.9v-1.673h23.608a1.055 1.055 0 100-2.109H15.178a8.648 8.648 0 10-11.27 0H1.055A1.055 1.055 0 000 47.263v2.729A4.012 4.012 0 004.008 54h45.984A4.013 4.013 0 0054 49.992V9.914a5.279 5.279 0 00-5.273-5.273zM17.543 8.068a1.055 1.055 0 11-2.109 0v-4.9a1.055 1.055 0 112.109 0zm24.047 0a1.055 1.055 0 01-2.109 0v-4.9a1.055 1.055 0 112.109 0zM3 39.656A6.539 6.539 0 119.543 46.2 6.546 6.546 0 013 39.656z" class="cls-1"/></g></g><g id="Сгруппировать_128" transform="translate(47.71 13.405)"><g id="Сгруппировать_127"><path id="Контур_62" d="M453.007 127.3a1.034 1.034 0 10.3.732 1.043 1.043 0 00-.3-.732z" class="cls-1" transform="translate(-451.24 -127)"/></g></g><g id="Сгруппировать_130" transform="translate(29.72 46.353)"><g id="Сгруппировать_129"><path id="Контур_63" d="M283.347 438.432a1.036 1.036 0 10.3.732 1.042 1.042 0 00-.3-.732z" class="cls-1" transform="translate(-281.58 -438.13)"/></g></g><g id="Сгруппировать_132" transform="translate(19.918 32.166)"><g id="Сгруппировать_131"><path id="Контур_64" d="M192.179 304a3.934 3.934 0 103.934 3.934 3.938 3.938 0 00-3.934-3.934zm0 5.8a1.863 1.863 0 111.863-1.863 1.865 1.865 0 01-1.863 1.863z" class="cls-1" transform="translate(-188.245 -304)"/></g></g><g id="Сгруппировать_134" transform="translate(29.794 32.166)"><g id="Сгруппировать_133"><path id="Контур_65" d="M285.512 304a3.934 3.934 0 103.934 3.934 3.938 3.938 0 00-3.934-3.934zm0 5.8a1.863 1.863 0 111.863-1.863 1.865 1.865 0 01-1.863 1.863z" class="cls-1" transform="translate(-281.578 -304)"/></g></g><g id="Сгруппировать_136" transform="translate(39.809 32.166)"><g id="Сгруппировать_135"><path id="Контур_66" d="M378.846 304a3.934 3.934 0 103.934 3.934 3.938 3.938 0 00-3.934-3.934zm0 5.8a1.863 1.863 0 111.863-1.863 1.865 1.865 0 01-1.863 1.863z" class="cls-1" transform="translate(-374.912 -304)"/></g></g><g id="Сгруппировать_138" transform="translate(10.043 21.162)"><g id="Сгруппировать_137"><path id="Контур_67" d="M98.846 200a3.934 3.934 0 103.934 3.934A3.938 3.938 0 0098.846 200zm0 5.8a1.863 1.863 0 111.863-1.863 1.865 1.865 0 01-1.863 1.863z" class="cls-1" transform="translate(-94.912 -200)"/></g></g><g id="Сгруппировать_140" transform="translate(29.794 21.162)"><g id="Сгруппировать_139"><path id="Контур_68" d="M285.512 200a3.934 3.934 0 103.934 3.934 3.938 3.938 0 00-3.934-3.934zm0 5.8a1.863 1.863 0 111.863-1.863 1.865 1.865 0 01-1.863 1.863z" class="cls-1" transform="translate(-281.578 -200)"/></g></g><g id="Сгруппировать_142" transform="translate(39.809 21.162)"><g id="Сгруппировать_141"><path id="Контур_69" d="M378.846 200a3.934 3.934 0 103.934 3.934 3.938 3.938 0 00-3.934-3.934zm0 5.8a1.863 1.863 0 111.863-1.863 1.865 1.865 0 01-1.863 1.863z" class="cls-1" transform="translate(-374.912 -200)"/></g></g><g id="Сгруппировать_144" transform="translate(19.918 21.162)"><g id="Сгруппировать_143"><path id="Контур_70" d="M192.179 200a3.934 3.934 0 103.934 3.934 3.938 3.938 0 00-3.934-3.934zm0 5.8a1.863 1.863 0 111.863-1.863 1.865 1.865 0 01-1.863 1.863z" class="cls-1" transform="translate(-188.245 -200)"/></g></g><g id="Сгруппировать_146" transform="translate(5.299 36.867)"><g id="Сгруппировать_145"><path id="Контур_71" d="M58.949 349a1.035 1.035 0 00-1.464 0l-3.371 3.371-1.152-1.152a1.035 1.035 0 10-1.464 1.464l1.884 1.884a1.035 1.035 0 001.464 0l4.1-4.1a1.035 1.035 0 00.003-1.467z" class="cls-1" transform="translate(-51.194 -348.7)"/></g></g></svg>