<svg xmlns="http://www.w3.org/2000/svg" width="64" height="57.235"><defs><style>.cls-1{fill:#3cb2f5}</style></defs><g id="sale"><path id="Контур_78" d="M59.75 9.934h-2.5V5.46A5.453 5.453 0 0051.805.011L32.813 0a4.021 4.021 0 00-2.862 1.186L1.595 29.539a5.447 5.447 0 000 7.7L20 55.642a5.454 5.454 0 007.7 0l17.85-17.851a1.25 1.25 0 10-1.768-1.768L25.931 53.875a2.95 2.95 0 01-4.167 0l-18.4-18.4a2.947 2.947 0 010-4.168L31.716 2.954a1.538 1.538 0 011.095-.454l18.989.011a2.95 2.95 0 012.95 2.948l-.006 10.475h-5.63a1.745 1.745 0 01-1.241-.518 4.614 4.614 0 10-2.729.283 4.257 4.257 0 003.97 2.735h5.629v5.992a1.535 1.535 0 01-.454 1.094l-3.432 3.432a1.25 1.25 0 101.768 1.768l3.432-3.432a4.023 4.023 0 001.186-2.86v-5.994h2.507a4.25 4.25 0 000-8.5zm-15.186-.24a2.1 2.1 0 013.307.426 4.267 4.267 0 00-2.844 2.9 2.1 2.1 0 01-.463-3.329zm15.186 6.24h-2.506v-3.5h2.5a1.75 1.75 0 110 3.5zm0 0" class="cls-1"/><path id="Контур_79" d="M161.091 216.126a1.229 1.229 0 001.515.856l12.632-3.516a1.23 1.23 0 10-.66-2.371l-12.632 3.516a1.231 1.231 0 00-.855 1.515zm0 0" class="cls-1" transform="translate(-140.816 -184.62)"/><path id="Контур_80" d="M199.028 257.939a3.628 3.628 0 105.131 0 3.6 3.6 0 00-5.131 0zm3.391 3.391a1.167 1.167 0 110-1.651 1.168 1.168 0 010 1.651zm0 0" class="cls-1" transform="translate(-173.17 -224.694)"/><path id="Контур_81" d="M209.125 161.819a3.633 3.633 0 10-2.566 1.061 3.632 3.632 0 002.566-1.061zm-3.391-3.391a1.167 1.167 0 110 1.651 1.159 1.159 0 010-1.651zm0 0" class="cls-1" transform="translate(-177.515 -136.127)"/><path id="Контур_82" d="M59.57 88.157a1.212 1.212 0 00-1.74 0l-3.5 3.572a1.276 1.276 0 000 1.778l15.6 15.941a1.213 1.213 0 001.74 0l23.336-23.834a1.276 1.276 0 000-1.778L79.4 67.9a1.212 1.212 0 00-1.74 0L64.79 81.046a1.276 1.276 0 000 1.778 1.213 1.213 0 001.74 0l12-12.262L92.4 84.725 70.807 106.78 56.944 92.618l2.626-2.683a1.276 1.276 0 000-1.778zm0 0" class="cls-1" transform="translate(-47.332 -59.218)"/><path id="Контур_83" d="M376.851 256.973a1.231 1.231 0 10.87.361 1.239 1.239 0 00-.87-.361zm0 0" class="cls-1" transform="translate(-328.639 -224.829)"/><path id="Контур_84" d="M112.772 202.522a1.229 1.229 0 10-.869.36 1.232 1.232 0 00.869-.36zm0 0" class="cls-1" transform="translate(-96.829 -175.351)"/></g></svg>