<svg xmlns="http://www.w3.org/2000/svg" width="52.682" height="64"><path fill="#fff" fill-rule="evenodd" d="M39.621 59.186a7.069 7.069 0 01-8.745 4.51L4.815 54.901a7.068 7.068 0 01-4.441-8.96l10.3-30.5a7.018 7.018 0 012.794-3.635L25.849 1.492A7.032 7.032 0 0132.434.37l9.31 3.124a7.066 7.066 0 014.688 5.379l3.6 15.714a7.072 7.072 0 01-.127 4.1l-1.64 4.86a33.518 33.518 0 003.44.956 1.25 1.25 0 01-.54 2.442 36.565 36.565 0 01-3.7-1.025zM19.049 43.708a1.19 1.19 0 00-.849-1.187l-6.508-2.19a1.251 1.251 0 10-.792 2.37l6.472 2.178a1.246 1.246 0 00.43.076 1.3 1.3 0 001.25-1.25zm8.457 1.945a1.282 1.282 0 00-1.6 1.2 1.176 1.176 0 00.8 1.168l.083.028 6.423 2.162a1.251 1.251 0 10.794-2.373zm-5.059-1.607a1.25 1.25 0 101.253 1.255 1.25 1.25 0 00-1.253-1.255zm8.775-28.453a1.25 1.25 0 012.5.049 15.163 15.163 0 00.5 3.8l.112-.054a4.2 4.2 0 10-3.215.216 4.258 4.258 0 00.62.158 17.475 17.475 0 01-.521-4.166zM35 21.832c1.436 3.606 4.481 7.984 10.927 10.811l1.6-4.763a4.517 4.517 0 00.24-1.31 4.589 4.589 0 00-.162-1.336l-3.615-15.8a4.591 4.591 0 00-1.051-2.233 4.542 4.542 0 00-1.989-1.334l-9.31-3.124a4.59 4.59 0 00-2.215-.177 9.411 9.411 0 00-2.018.881L14.884 13.869a4.571 4.571 0 00-1.839 2.367l-10.3 30.5a4.571 4.571 0 002.863 5.792l25.847 8.727a4.571 4.571 0 005.791-2.861L45.12 35.03c-7.586-3.245-11.035-8.481-12.6-12.7a6.712 6.712 0 112.928-.7q-.22.109-.448.2zm-19.529 7.325l22.315 7.511a1.251 1.251 0 00.794-2.373l-22.315-7.511a1.251 1.251 0 00-.794 2.373zm-2.287 6.773L35.5 43.441a1.251 1.251 0 10.794-2.373l-22.316-7.511a1.251 1.251 0 00-.794 2.373zm0 0"/></svg>