<svg xmlns="http://www.w3.org/2000/svg" width="64" height="40.484"><defs><style>.cls-1{fill:#3cb2f5}</style></defs><g id="shipped_1_" transform="translate(0 -94.062)"><g id="Сгруппировать_50" transform="translate(0 94.062)"><g id="Сгруппировать_49"><path id="Контур_14" d="M59.52 111.225l-1.658-6.625a1 1 0 00.793-.98v-1.069a4.214 4.214 0 00-4.209-4.209H46.9v-2.2a2.073 2.073 0 00-2.071-2.071H6.347a2.073 2.073 0 00-2.071 2.071V114.3a1 1 0 102 0V96.133a.067.067 0 01.067-.067h38.48a.067.067 0 01.067.067V114.3a1 1 0 102 0v-1.136h11.834a3.279 3.279 0 013.114 2.271h-3.116a1 1 0 00-1 1v2.138a3.143 3.143 0 003.14 3.14H62v4.409h-2.62a6.345 6.345 0 00-12 0h-.48v-7.542a1 1 0 00-2 0v7.549H24.1a6.345 6.345 0 00-12 0H6.347a.067.067 0 01-.067-.067v-2.2h4.342a1 1 0 100-2H1a1 1 0 100 2h3.276v2.2a2.073 2.073 0 002.071 2.071h5.413v.067a6.347 6.347 0 0012.693 0v-.067h22.58v.067a6.347 6.347 0 0012.693 0v-.067H63a1 1 0 001-1v-10.691a5.286 5.286 0 00-4.48-5.217zM46.9 100.342h7.549a2.207 2.207 0 012.2 2.2v.067H46.9zm0 10.823v-6.547h8.9l1.637 6.547zm-28.8 21.377a4.342 4.342 0 114.342-4.342 4.347 4.347 0 01-4.342 4.342zm35.274 0a4.342 4.342 0 114.346-4.342 4.347 4.347 0 01-4.342 4.342zM62 119.716h-1.14a1.137 1.137 0 01-1.136-1.136v-1.136H62v2.272z" class="cls-1" transform="translate(0 -94.062)"/></g></g><g id="Сгруппировать_52" transform="translate(15.964 125.603)"><g id="Сгруппировать_51"><path id="Контур_15" d="M130.467 350.6a2.2 2.2 0 102.2 2.2 2.2 2.2 0 00-2.2-2.2z" class="cls-1" transform="translate(-128.267 -350.597)"/></g></g><g id="Сгруппировать_54" transform="translate(50.514 125.603)"><g id="Сгруппировать_53"><path id="Контур_16" d="M412.655 350.6a2.2 2.2 0 102.2 2.2 2.2 2.2 0 00-2.2-2.2z" class="cls-1" transform="translate(-410.455 -350.597)"/></g></g><g id="Сгруппировать_56" transform="translate(25.075 121.763)"><g id="Сгруппировать_55"><path id="Контур_17" d="M222.192 316.393h-15.9a1.065 1.065 0 000 2.13h15.9a1.065 1.065 0 100-2.13z" class="cls-1" transform="translate(-205.227 -316.393)"/></g></g><g id="Сгруппировать_58" transform="translate(2.271 117.501)"><g id="Сгруппировать_57"><path id="Контур_18" d="M31.8 282.188H18.167a1.065 1.065 0 100 2.13H31.8a1.065 1.065 0 000-2.13z" class="cls-1" transform="translate(-17.102 -282.188)"/></g></g><g id="Сгруппировать_60" transform="translate(17.761 103.44)"><g id="Сгруппировать_59"><path id="Контур_19" d="M163.087 171.334a1.065 1.065 0 00-1.506 0l-9.468 9.468-4.926-4.926a1.065 1.065 0 10-1.506 1.506l5.679 5.679a1.065 1.065 0 001.506 0l10.221-10.221a1.065 1.065 0 000-1.506z" class="cls-1" transform="translate(-145.37 -171.023)"/></g></g></g></svg>