<svg xmlns="http://www.w3.org/2000/svg" width="36.271" height="36.271"><g fill-rule="evenodd"><path fill="none" d="M0 0h36.271v36.271H0z"/><path fill="#fff" d="M20.527 18.54a1.063 1.063 0 00.076.08l11.148 8.027a.847.847 0 00.375.145 4.271 4.271 0 01-3.75 2.225H7.898a4.268 4.268 0 01-3.75-2.227.852.852 0 00.375-.143l11.142-8.021 1.886 1.063a.878.878 0 00.845.007zm12.12-6.58v12.869c0 .12-.027.232-.036.348l-10.455-7.523 10.488-5.7zm-29.02-.123l10.412 5.87-10.376 7.472c-.011-.118-.036-.23-.036-.35zm24.746-4.583a4.255 4.255 0 014.044 2.905l-14.428 7.835L3.89 10.043a4.258 4.258 0 014.008-2.789z"/></g></svg>