<svg xmlns="http://www.w3.org/2000/svg" id="XMLID_1031_" width="64" height="64"><defs><style>.cls-1{fill:#fff}</style></defs><g id="XMLID_971_"><g id="XMLID_977_"><path id="XMLID_1030_" d="M57.171 12.242h1.977a1.249 1.249 0 000-2.5H54.4a1.249 1.249 0 00-1.249 1.249v4.749a1.249 1.249 0 102.5 0v-1.375A29.5 29.5 0 1132 2.5a29.946 29.946 0 013.6.217 1.249 1.249 0 10.3-2.48A32.454 32.454 0 0032 0 32 32 0 009.373 54.627a32 32 0 0047.8-42.385z" class="cls-1"/><path id="XMLID_1029_" d="M70.572 75.873a1.246 1.246 0 00-1.719.386 23.789 23.789 0 107.447-7.431 1.246 1.246 0 101.329 2.108 21.306 21.306 0 11-3.719 33.1 21.441 21.441 0 01-2.95-26.446 1.246 1.246 0 00-.388-1.717z" class="cls-1" transform="translate(-56.973 -56.974)"/><path id="XMLID_1028_" d="M377.428 248.848h1.553a1.259 1.259 0 100-2.518h-1.553a1.259 1.259 0 000 2.518z" class="cls-1" transform="translate(-329.203 -215.569)"/><path id="XMLID_1004_" d="M103.835 247.265a1.259 1.259 0 001.259 1.259h1.553a1.259 1.259 0 100-2.518h-1.553a1.259 1.259 0 00-1.259 1.259z" class="cls-1" transform="translate(-90.871 -215.285)"/><path id="XMLID_1001_" d="M248.848 106.647v-1.553a1.259 1.259 0 00-2.518 0v1.553a1.259 1.259 0 102.518 0z" class="cls-1" transform="translate(-215.569 -90.871)"/><path id="XMLID_1415_" d="M246.006 377.428v1.553a1.259 1.259 0 102.518 0v-1.553a1.259 1.259 0 00-2.518 0z" class="cls-1" transform="translate(-215.285 -329.203)"/><path id="XMLID_996_" d="M191.122 159.192a1.259 1.259 0 00-1.781 1.781l4.267 4.267a4.337 4.337 0 107.648 0l8.609-8.609a1.259 1.259 0 00-1.781-1.781l-8.609 8.609a4.328 4.328 0 00-4.087 0zm8.13 8.091a1.819 1.819 0 11-1.819-1.819 1.821 1.821 0 011.818 1.819z" class="cls-1" transform="translate(-165.457 -135.238)"/><path id="XMLID_980_" d="M120.327 120.327a1.258 1.258 0 10-.89.369 1.264 1.264 0 00.89-.369z" class="cls-1" transform="translate(-103.42 -103.42)"/><path id="XMLID_979_" d="M316.7 12.4a1.26 1.26 0 10-.89-.369 1.264 1.264 0 00.89.369z" class="cls-1" transform="translate(-276.047 -8.634)"/></g></g></svg>