<svg xmlns="http://www.w3.org/2000/svg" width="49.715" height="54"><path fill="#3cb2f5" d="M49.692 12.731a1.415 1.415 0 00-.137-.6 1.32 1.32 0 00-.923-.729L25.416.137a1.377 1.377 0 00-1.2 0L.775 11.5A1.373 1.373 0 000 12.685v28.573a1.358 1.358 0 00.775 1.231l23.444 11.363c.011 0 .011 0 .023.011a.4.4 0 01.1.046c.011 0 .023.011.046.011l.1.034c.011 0 .023.011.034.011.034.011.08.011.114.023h.034c.046 0 .1.011.148.011a.65.65 0 00.148-.011H25a.4.4 0 00.114-.023c.011 0 .023-.011.034-.011l.1-.034c.011 0 .023-.011.046-.011a.4.4 0 00.1-.046c.011 0 .011 0 .023-.011l23.512-11.4a1.378 1.378 0 00.775-1.231V12.765c-.012-.012-.012-.023-.012-.034zm-24.88-9.848l20.333 9.859-7.488 3.636-20.333-9.859zm0 19.717L4.479 12.742l9.71-4.707 20.333 9.859zM2.735 14.942l20.709 10.041v25.45L2.735 40.392zm23.444 35.491v-25.45l9.721-4.719v6.656a1.368 1.368 0 102.735 0v-7.989l8.32-4.035v25.45z"/></svg>