<svg xmlns="http://www.w3.org/2000/svg" width="54.99" height="54.99"><path fill="none" d="M0 0h54.99v54.99H0z"/><path fill="#fff" fill-rule="evenodd" d="M21.996 38.493v-16.5h-5.5v16.5zm-2.8-19.254a2.711 2.711 0 002.791-2.7 2.808 2.808 0 00-.742-2 2.563 2.563 0 00-1.955-.792 2.708 2.708 0 00-2.794 2.794 2.693 2.693 0 00.743 1.906 2.572 2.572 0 001.957.792zm22.046 19.254v-9.766a7.592 7.592 0 00-2.09-5.213 5.484 5.484 0 00-4.234-1.767 5.578 5.578 0 00-4.674 2.607v-2.358h-5.5v16.5h5.5v-9.489a3.068 3.068 0 01.209-1.3 2.636 2.636 0 012.6-1.864c1.738 0 2.686 1.149 2.686 3.445v9.208z"/></svg>