<svg xmlns="http://www.w3.org/2000/svg" width="64" height="50.086"><defs><style>.cls-1{fill:#3cb2f5}</style></defs><g id="newspaper" transform="translate(0 -49.461)"><path id="Контур_85" d="M62.756 80.146A2.681 2.681 0 0060 80.41L42.287 91.565a1.055 1.055 0 001.124 1.785L61.127 82.2c.374-.236.579-.218.609-.2s.154.181.154.623A4.643 4.643 0 0160 86.036L42.828 96.85a2.383 2.383 0 01-2.29.434 2.383 2.383 0 01-.853-2.169 10.333 10.333 0 014.268-7.732L63.507 75.07a1.055 1.055 0 000-1.786l-37.574-23.66a1.055 1.055 0 00-1.124 0L5.016 62.087A11.778 11.778 0 000 71.173v.563a11.778 11.778 0 005.016 9.086l29.438 18.537a1.055 1.055 0 101.124-1.785L6.14 79.036a9.756 9.756 0 01-4.03-7.3v-.563a9.757 9.757 0 014.03-7.3l19.23-12.109 35.595 22.413L42.828 85.6a12.337 12.337 0 00-5.254 9.517 4.3 4.3 0 001.944 4.016 3.368 3.368 0 001.647.416 5.3 5.3 0 002.787-.911l17.175-10.817A6.747 6.747 0 0064 82.616a2.681 2.681 0 00-1.244-2.47z" class="cls-1"/><path id="Контур_86" d="M197.111 125.191a1.006 1.006 0 00.537-1.857L174.412 108.7a1.006 1.006 0 10-1.072 1.7l23.235 14.631a1 1 0 00.536.16z" class="cls-1" transform="translate(-147.752 -50.568)"/><path id="Контур_87" d="M253.8 199.839a1.006 1.006 0 00.535-1.858l-9.816-6.155a1.006 1.006 0 00-1.068 1.7l9.816 6.155a1 1 0 00.533.158z" class="cls-1" transform="translate(-208.414 -122.015)"/><path id="Контур_88" d="M213.968 211.572a1.006 1.006 0 10-1.065 1.706l9.891 6.176a1.006 1.006 0 001.065-1.706z" class="cls-1" transform="translate(-182.211 -138.957)"/><path id="Контур_89" d="M88.2 128.331l-8.357 5.263a1.006 1.006 0 000 1.7l9.966 6.2a1.005 1.005 0 001.077-.009l2.22-1.435a1.006 1.006 0 00-1.092-1.689l-1.684 1.089-8.06-5.012 6.462-4.07 7.943 4.98-.926.6a1.006 1.006 0 101.092 1.689l2.252-1.456a1.006 1.006 0 00-.012-1.7l-9.817-6.155a1 1 0 00-1.064.005z" class="cls-1" transform="translate(-67.953 -67.44)"/><path id="Контур_90" d="M193.709 238.9a1 1 0 00-.323-1.385l-9.967-6.2a1.006 1.006 0 00-1.062 1.708l9.967 6.2a1.005 1.005 0 001.385-.323z" class="cls-1" transform="translate(-156.007 -155.896)"/><path id="Контур_91" d="M52.547 189.8a1 1 0 00.323 1.385l24.6 15.3a1.006 1.006 0 101.062-1.708l-24.6-15.3a1 1 0 00-1.385.323z" class="cls-1" transform="translate(-45.37 -119.665)"/></g></svg>