<svg xmlns="http://www.w3.org/2000/svg" width="54" height="64"><defs><style>.cls-1{fill:#3cb2f5}</style></defs><g id="stopwatch" transform="translate(-40)"><path id="Контур_20" d="M86.092 17.908a27.241 27.241 0 00-4.625-3.716l1.8-3.126 2.018 1.165a1 1 0 101-1.732l-5.731-3.311a1 1 0 10-1 1.732l1.985 1.146-1.8 3.115A26.818 26.818 0 0068 10.02V9.9a5 5 0 10-2 0v.121a27 27 0 1020.092 7.888zM64 5a3 3 0 114 2.828V5a1 1 0 00-2 0v2.828A3 3 0 0164 5zm3 57a25 25 0 1125-25 25.028 25.028 0 01-25 25z" class="cls-1"/><path id="Контур_21" d="M114.6 122.953a1 1 0 10-1.7 1.049 20.992 20.992 0 11-6.9-6.9 1 1 0 001.049-1.7 22.992 22.992 0 107.554 7.552z" class="cls-1" transform="translate(-28 -98)"/><path id="Контур_22" d="M365.663 158.557a21.258 21.258 0 011.654 1.654 1 1 0 101.49-1.334 23.209 23.209 0 00-1.81-1.81 1 1 0 00-1.334 1.49z" class="cls-1" transform="translate(-284.663 -137.21)"/><path id="Контур_23" d="M255.242 145.055A18.917 18.917 0 00249 144a1 1 0 00-1 1v18a1 1 0 00.293.707l12.728 12.728a1 1 0 001.414 0 19.008 19.008 0 004.995-18.058.973.973 0 00-.03-.123 18.877 18.877 0 00-1.741-4.383.988.988 0 00-.1-.186 19.1 19.1 0 00-2.534-3.494 1.013 1.013 0 00-.1-.115c-.02-.02-.04-.037-.061-.055a19.054 19.054 0 00-7.48-4.917.99.99 0 00-.142-.049zm2.133 3.156L250 155.586v-3.171l5.231-5.231a16.937 16.937 0 012.144 1.027zm3.431 2.569L250 161.586v-3.172l9.088-9.088a17.132 17.132 0 011.718 1.454zm2.675 3.325L252.5 165.086l-1.586-1.586 11.247-11.247a17.077 17.077 0 011.32 1.847zm1.845 4.155l-9.826 9.826-1.586-1.586 10.552-10.552a16.865 16.865 0 01.86 2.312zM266 163c0 .2 0 .4-.011.6l-7.489 7.489-1.586-1.586 8.914-8.914A17.07 17.07 0 01266 163zm-12.912-16.5L250 149.586v-3.557a16.93 16.93 0 013.088.471zm8.62 27.8l-1.793-1.793 5.651-5.651a16.85 16.85 0 01-3.858 7.437z" class="cls-1" transform="translate(-182 -126)"/></g></svg>