<svg xmlns="http://www.w3.org/2000/svg" width="54.238" height="64"><defs><style>.cls-1{fill:#fff}</style></defs><g id="_03_-_taska" transform="translate(-15.359)"><g id="Сгруппировать_102" transform="translate(34.819)"><g id="Сгруппировать_101"><path id="Контур_43" d="M93.379 7.908A9.221 9.221 0 0076.8 3.787a1.084 1.084 0 101.751 1.279 7.052 7.052 0 0112.68 3.148 1.086 1.086 0 001.073.932 1.162 1.162 0 00.154-.011 1.085 1.085 0 00.921-1.227z" class="cls-1" transform="translate(-76.593)"/></g></g><g id="Сгруппировать_104" transform="translate(17.528 14.101)"><g id="Сгруппировать_103"><path id="Контур_44" d="M71.929 50.322L68.674 44.9a1.083 1.083 0 00-.93-.527h-3.118a1.085 1.085 0 000 2.169h2.5l1.957 3.258h-43.9l1.953-3.254h1.149a1.085 1.085 0 000-2.169h-1.761a1.083 1.083 0 00-.93.527l-3.254 5.424a1.085 1.085 0 00.93 1.643H71a1.085 1.085 0 00.93-1.643z" class="cls-1" transform="translate(-22.185 -44.372)"/></g></g><g id="Сгруппировать_106" transform="translate(43.955 6.078)"><g id="Сгруппировать_105"><path id="Контур_45" d="M123.253 23.1a1.083 1.083 0 00-.675-.484l-14.787-3.459a1.084 1.084 0 00-1.3.809l-1.115 4.767a1.085 1.085 0 002.112.494l.868-3.71 12.675 2.965-1.992 8.515a1.084 1.084 0 00.809 1.3 1.1 1.1 0 00.249.029 1.083 1.083 0 001.054-.837l2.239-9.571a1.08 1.08 0 00-.137-.818z" class="cls-1" transform="translate(-105.343 -19.126)"/></g></g><g id="Сгруппировать_108" transform="translate(21.758 3.297)"><g id="Сгруппировать_107"><path id="Контур_46" d="M56.787 19.691l-.988-8.36a1.085 1.085 0 00-1.2-.95l-18.148 2.144a1.085 1.085 0 00-.95 1.2l1.648 13.943a1.085 1.085 0 001.076.958 1.185 1.185 0 00.129-.008 1.085 1.085 0 00.95-1.2l-1.521-12.866 15.989-1.89.861 7.282a1.085 1.085 0 002.155-.254z" class="cls-1" transform="translate(-35.494 -10.374)"/></g></g><g id="Сгруппировать_110" transform="translate(29.862 10.414)"><g id="Сгруппировать_109"><path id="Контур_47" d="M82.764 42.553L80.611 33.6a1.084 1.084 0 00-1.308-.8L61.828 37a1.085 1.085 0 00-.8 1.308l1.072 4.477a1.085 1.085 0 102.109-.507l-.823-3.421 15.365-3.695 1.9 7.9a1.085 1.085 0 002.11-.508z" class="cls-1" transform="translate(-60.997 -32.769)"/></g></g><g id="Сгруппировать_112" transform="translate(15.359 19.526)"><g id="Сгруппировать_111"><path id="Контур_48" d="M67.426 62.47a1.085 1.085 0 00-1.084-1.029H18.613a1.085 1.085 0 00-1.083 1.029l-2.17 42.305a1.084 1.084 0 001.083 1.14h52.068a1.084 1.084 0 001.084-1.14zm-49.841 41.276l2.058-40.136h45.668l2.058 40.135z" class="cls-1" transform="translate(-15.359 -61.441)"/></g></g><g id="Сгруппировать_114" transform="translate(47.359 23.864)"><g id="Сгруппировать_113"><path id="Контур_49" d="M119.306 75.093a3.254 3.254 0 103.254 3.254 3.258 3.258 0 00-3.254-3.254zm0 4.339a1.085 1.085 0 111.085-1.085 1.086 1.086 0 01-1.085 1.085z" class="cls-1" transform="translate(-116.052 -75.093)"/></g></g><g id="Сгруппировать_116" transform="translate(31.087 23.864)"><g id="Сгруппировать_115"><path id="Контур_50" d="M68.106 75.093a3.254 3.254 0 103.254 3.254 3.258 3.258 0 00-3.254-3.254zm0 4.339a1.085 1.085 0 111.085-1.085 1.086 1.086 0 01-1.085 1.085z" class="cls-1" transform="translate(-64.852 -75.093)"/></g></g><g id="Сгруппировать_118" transform="translate(33.257 27.118)"><g id="Сгруппировать_117"><path id="Контур_51" d="M89.035 85.333h-.084a1.085 1.085 0 00-1.085 1.085 1.073 1.073 0 00.084.418v5.548a7.051 7.051 0 01-14.1 0v-5.966a1.085 1.085 0 10-2.169 0v5.966a9.22 9.22 0 1018.44 0v-5.966a1.085 1.085 0 00-1.086-1.085z" class="cls-1" transform="translate(-71.679 -85.333)"/></g></g></g></svg>