<svg xmlns="http://www.w3.org/2000/svg" width="30" height="30"><path fill="none" d="M0 0h30v30H0z"/><path fill="#fff" fill-rule="evenodd" d="M30 7.2a11.228 11.228 0 01-2.9 2.93v.7a16.188 16.188 0 01-4.56 11.161 15.574 15.574 0 01-12.1 5.01 16.485 16.485 0 01-8.94-2.58 13.177 13.177 0 001.389.117 11.577 11.577 0 007.245-2.46 5.994 5.994 0 01-3.381-1.143A5.389 5.389 0 014.7 18.153a7.518 7.518 0 001.087.117 6.936 6.936 0 001.57-.235 5.937 5.937 0 01-3.351-1.962 5.305 5.305 0 01-1.359-3.6v-.06a5.624 5.624 0 002.656.705 5.284 5.284 0 01-2.594-4.751 5.525 5.525 0 01.783-2.812 15.989 15.989 0 0012.017 5.917 4.951 4.951 0 01-.12-1.289 5.406 5.406 0 011.691-4.042A5.745 5.745 0 0121.244 4.5a5.664 5.664 0 014.227 1.815 11.075 11.075 0 003.744-1.405 5.234 5.234 0 01-2.6 3.165A10.212 10.212 0 0030 7.2z"/></svg>