<svg xmlns="http://www.w3.org/2000/svg" width="64" height="53.314"><path fill="#3cb2f5" d="M61.807 16.021A2.195 2.195 0 0064 13.829V11.11a2.2 2.2 0 00-2.192-2.193h-.139a5.773 5.773 0 10-9.674 0h-.138a2.2 2.2 0 00-2.193 2.193v2.719a2.2 2.2 0 002.193 2.192h1.463v2.254h-1.494a3.78 3.78 0 00-1.871.5l-.345.2-.286-.458a2.191 2.191 0 00-2.919-.753A30.3 30.3 0 0132 21.151a30.3 30.3 0 01-14.406-3.394 2.191 2.191 0 00-2.919.753l-.286.458-.344-.2a3.782 3.782 0 00-1.871-.5h-1.495v-2.247h1.465a2.195 2.195 0 002.192-2.192V11.11a2.2 2.2 0 00-2.192-2.193H12A5.771 5.771 0 005.359.291a.938.938 0 00.587 1.781 3.89 3.89 0 11-2.5 2.542.938.938 0 00-1.791-.557 5.771 5.771 0 00.676 4.86h-.139A2.2 2.2 0 000 11.11v2.719a2.195 2.195 0 002.192 2.192h1.465v2.255a.937.937 0 000 1.874v26.136A4.484 4.484 0 000 50.687v.435a2.195 2.195 0 002.192 2.192h9.951a2.195 2.195 0 002.192-2.192v-.435a4.483 4.483 0 00-3.657-4.4V20.15h1.494a1.9 1.9 0 01.941.25l.281.161-.377.6a2.2 2.2 0 00-.264 1.705 2.155 2.155 0 001.047 1.362 32.32 32.32 0 005.453 2.4.938.938 0 00.6-1.777 30.446 30.446 0 01-5.136-2.26.294.294 0 01-.144-.188.314.314 0 01.038-.247l1.656-2.654a.317.317 0 01.422-.1A32.2 32.2 0 0032 23.026a32.2 32.2 0 0015.312-3.63.316.316 0 01.422.1l1.656 2.654a.314.314 0 01.038.247.3.3 0 01-.144.188A35.917 35.917 0 0132 26.776a39.635 39.635 0 01-7.968-.8.937.937 0 10-.378 1.836 41.493 41.493 0 008.346.839 37.816 37.816 0 0018.2-4.423 2.156 2.156 0 001.044-1.358 2.2 2.2 0 00-.264-1.705l-.377-.6.281-.16a1.9 1.9 0 01.941-.25h1.495v15.17a.937.937 0 001.875 0V20.15h3.271v26.059H55.2v-6.465a.937.937 0 00-1.875 0v6.542a4.483 4.483 0 00-3.657 4.4v.435a2.195 2.195 0 002.192 2.192h9.951A2.195 2.195 0 0064 51.121v-.435a4.483 4.483 0 00-3.657-4.4V20.149a.937.937 0 000-1.874v-2.254zM1.875 13.829V11.11a.318.318 0 01.317-.318h2.125a5.752 5.752 0 005.7 0h2.13a.318.318 0 01.317.318v2.719a.317.317 0 01-.317.317H2.192a.318.318 0 01-.317-.317zM8.8 16.021v2.254H5.532v-2.254zm3.657 34.665v.435a.318.318 0 01-.317.317H2.192a.318.318 0 01-.317-.317v-.435a2.605 2.605 0 012.6-2.6h5.384a2.605 2.605 0 012.6 2.6zM8.8 46.209H5.532V20.15H8.8zM56.832 1.875a3.9 3.9 0 11-3.9 3.9 3.9 3.9 0 013.9-3.9zm-5.293 11.954V11.11a.318.318 0 01.317-.318h2.129a5.752 5.752 0 005.692 0h2.13a.318.318 0 01.317.318v2.719a.318.318 0 01-.317.317h-9.951a.318.318 0 01-.317-.317zm10.586 36.858v.435a.318.318 0 01-.317.317h-9.952a.318.318 0 01-.317-.317v-.435a2.605 2.605 0 012.6-2.6h5.381a2.605 2.605 0 012.605 2.6zm-3.658-32.412H55.2v-2.254h3.271zm0 0"/></svg>