<svg xmlns="http://www.w3.org/2000/svg" width="64" height="52.823"><defs><style>.cls-1{fill:#3cb2f5}</style></defs><g id="customer-service" transform="translate(.001)"><path id="Контур_72" d="M233.208 0h-5.875a.926.926 0 000 1.852h5.875a2.088 2.088 0 012.086 2.086v14.133a2.088 2.088 0 01-2.086 2.086h-21.652a.928.928 0 00-.655.271l-5.333 5.333v-4.678a.926.926 0 00-.926-.926h-1.763a2.088 2.088 0 01-2.086-2.086V3.938a2.088 2.088 0 012.086-2.086h21.367a.926.926 0 100-1.852h-21.367a3.943 3.943 0 00-3.938 3.938v14.133a3.943 3.943 0 003.938 3.938h.838V28a.926.926 0 001.581.655l6.642-6.642h21.268a3.943 3.943 0 003.938-3.938V3.938A3.943 3.943 0 00233.208 0zm0 0" class="cls-1" transform="translate(-173.147)"/><path id="Контур_73" d="M250.834 55.563c1.1-.751 2.465-1.687 2.465-3.287a2.318 2.318 0 00-.889-1.871 3.152 3.152 0 00-1.944-.647 2.526 2.526 0 00-2.747 2.336c0 .669.282.995.861.995.654 0 1.007-.363 1.007-.7a.9.9 0 011.794-.049c0 .719-.848 1.342-1.746 2-1.013.744-2.061 1.513-2.061 2.52v1.17c0 .364.5.6.837.6h4.3c.311 0 .583-.4.583-.85s-.273-.825-.583-.825h-3.152v-.093c0-.424.589-.827 1.271-1.294zm0 0" class="cls-1" transform="translate(-216.554 -43.685)"/><path id="Контур_74" d="M304.685 58.625c.658 0 .958-.308.958-.6v-1.261h.5c.3 0 .6-.439.6-.886 0-.609-.309-.886-.6-.886h-.5v-.831c0-.269-.251-.583-.958-.583s-.958.314-.958.583v.831h-1l2.129-4.27a.609.609 0 00.062-.236.66.66 0 00-.356-.533 1.229 1.229 0 00-.6-.2.865.865 0 00-.8.492l-2.793 5.476a.785.785 0 00-.1.37.622.622 0 00.645.668h2.813v1.266c0 .287.3.6.958.6zm0 0" class="cls-1" transform="translate(-262.634 -43.685)"/><path id="Контур_75" d="M364.7 46.007l-4.243 8.715a.555.555 0 00-.062.236.684.684 0 00.693.656.618.618 0 00.558-.311l4.255-8.716a.54.54 0 00.05-.236.707.707 0 00-.729-.656.549.549 0 00-.522.311zm0 0" class="cls-1" transform="translate(-315.242 -40.119)"/><path id="Контур_76" d="M415.426 52.823c.526 0 .971-.273.971-.6v-.795h2.133v.827l-2.972 5.147a.634.634 0 00-.086.322c0 .572.639.97 1.212.97a.555.555 0 00.545-.262l2.829-5.415a3.123 3.123 0 00.388-1.156v-1.508c0-.26-.406-.6-.838-.6h-4.291c-.422 0-.838.3-.838.6v1.874c0 .328.425.6.946.6zm0 0" class="cls-1" transform="translate(-362.382 -43.686)"/><path id="Контур_77" d="M38.291 57.76a2.506 2.506 0 00-3.607 0l-5.66 5.807a32.554 32.554 0 01-6.406-4.257.91.91 0 00-1.3.114.967.967 0 00.111 1.339 35.958 35.958 0 007.349 4.812.908.908 0 001.08-.172l3.042-3.124 10.039 10.3c-3.243 2.856-7.835 3.85-13.049 2.8-5.864-1.183-12.068-4.887-17.471-10.431S3.4 53.036 2.251 47.02C1.226 41.67 2.2 36.959 4.978 33.632l10.04 10.3-3.046 3.125a.968.968 0 00-.167 1.108 35.255 35.255 0 007.059 10.167.91.91 0 001.31 0 .967.967 0 000-1.344 32.283 32.283 0 01-6.411-9.08l5.66-5.808a2.665 2.665 0 000-3.7l-9.078-9.314a2.5 2.5 0 00-3.607 0l-2.44 2.5C.585 35.4-.788 41.011.434 47.387s5.014 13.1 10.675 18.9 12.2 9.7 18.424 10.951a21.712 21.712 0 004.3.446 15.074 15.074 0 0011.094-4.411l2.44-2.5a2.665 2.665 0 000-3.7zM8.048 30.431a.686.686 0 01.988 0l9.078 9.314a.73.73 0 010 1.013l-1.786 1.832L6.263 32.262zm38.011 39l-1.786 1.832-10.065-10.328 1.786-1.835a.686.686 0 01.988 0l9.077 9.313a.732.732 0 010 1.014zm0 0" class="cls-1" transform="translate(0 -24.864)"/></g></svg>