<svg xmlns="http://www.w3.org/2000/svg" width="64" height="52.404" viewBox="0 0 64 52.404">
    <defs>
        <style>
            .cls-1{fill:#3cb2f5}
        </style>
    </defs>
    <g id="open-magazine" transform="translate(0 -42.126)">
        <path id="Контур_92" d="M226.645 150v-24.557a.823.823 0 0 0-1.645 0V150a.823.823 0 0 0 1.645 0z" class="cls-1"
              transform="translate(-193.823 -67.254)"/>
        <path id="Контур_93"
              d="M62.968 46.839c-2.182 0-4.9-.958-7.781-1.972-3.646-1.285-7.779-2.74-12.065-2.74a12.485 12.485 0 0 0-9.65 4.066A12.751 12.751 0 0 0 32 48.2a12.751 12.751 0 0 0-1.471-2.006 12.485 12.485 0 0 0-9.65-4.066c-4.286 0-8.419 1.456-12.065 2.74-2.879 1.014-5.6 1.972-7.781 1.972A1.041 1.041 0 0 0 0 47.889v42.3a1.041 1.041 0 0 0 1.032 1.05c2.53 0 5.409-1.014 8.456-2.088 3.492-1.23 7.451-2.625 11.39-2.625A10.424 10.424 0 0 1 29 89.909a1.02 1.02 0 0 0 1.458.067 1.063 1.063 0 0 0 .066-1.484 12.485 12.485 0 0 0-9.65-4.066c-4.286 0-8.419 1.456-12.065 2.74a33.987 33.987 0 0 1-6.749 1.909V48.887a33.678 33.678 0 0 0 7.424-2.036c3.492-1.23 7.451-2.625 11.39-2.625 7.966 0 10.051 6.436 10.135 6.706a1.027 1.027 0 0 0 1.974 0 10.312 10.312 0 0 1 10.135-6.706c3.939 0 7.9 1.395 11.39 2.625a33.672 33.672 0 0 0 7.424 2.036v40.189a34 34 0 0 1-6.749-1.909c-3.646-1.285-7.779-2.74-12.065-2.74a12.484 12.484 0 0 0-9.65 4.066 1.063 1.063 0 0 0 .066 1.484A1.02 1.02 0 0 0 35 89.909a10.424 10.424 0 0 1 8.126-3.382c3.939 0 7.9 1.395 11.39 2.625 3.048 1.074 5.927 2.088 8.456 2.088A1.041 1.041 0 0 0 64 90.19v-42.3a1.041 1.041 0 0 0-1.032-1.051z"
              class="cls-1"/>
        <path id="Контур_94"
              d="M62.968 377.909a32.516 32.516 0 0 1-7.781-1.545c-3.646-1.006-7.779-2.147-12.065-2.147a14.421 14.421 0 0 0-9.331 2.917H30.21a14.421 14.421 0 0 0-9.331-2.917c-4.286 0-8.419 1.14-12.065 2.147a32.516 32.516 0 0 1-7.781 1.545.844.844 0 1 0 0 1.645 34.021 34.021 0 0 0 8.456-1.635c3.492-.964 7.451-2.056 11.39-2.056A11.975 11.975 0 0 1 29 378.512a1.166 1.166 0 0 0 .762.268h4.467a1.167 1.167 0 0 0 .762-.268 11.974 11.974 0 0 1 8.126-2.649c3.939 0 7.9 1.092 11.39 2.056a34.023 34.023 0 0 0 8.456 1.635.844.844 0 1 0 0-1.645z"
              class="cls-1" transform="translate(0 -285.024)"/>
    </g>
</svg>
