<svg xmlns="http://www.w3.org/2000/svg" width="36.271" height="36.271" viewBox="0 0 36.271 36.271">
    <g fill-rule="evenodd">
        <path fill="none" d="M0 1h36.271v36.271H0z" transform="translate(0 -1)"/>
        <path fill="#fff"
              d="M18.9 16.286a1.063 1.063 0 0 0 .076.08l11.148 8.027a.847.847 0 0 0 .375.145 4.271 4.271 0 0 1-3.75 2.225H6.271a4.268 4.268 0 0 1-3.75-2.227.852.852 0 0 0 .375-.143l11.142-8.021 1.886 1.063a.878.878 0 0 0 .845.007zm12.12-6.58v12.869c0 .12-.027.232-.036.348L20.529 15.4l10.488-5.7zM2 9.583l10.412 5.87-10.376 7.472c-.011-.118-.036-.23-.036-.35zM26.746 5a4.255 4.255 0 0 1 4.044 2.905L16.362 15.74 2.263 7.789A4.258 4.258 0 0 1 6.271 5z"
              transform="translate(0 -1) translate(1.627 3.254)"/>
    </g>
</svg>
