<svg xmlns="http://www.w3.org/2000/svg" width="49.715" height="54" viewBox="0 0 49.715 54">
    <g>
        <path fill="#3cb2f5"
              d="M68.492 12.731a1.415 1.415 0 0 0-.137-.6 1.32 1.32 0 0 0-.923-.729L44.216.137a1.377 1.377 0 0 0-1.2 0L19.575 11.5a1.373 1.373 0 0 0-.775 1.185v28.573a1.358 1.358 0 0 0 .775 1.231l23.444 11.363c.011 0 .011 0 .023.011a.4.4 0 0 1 .1.046c.011 0 .023.011.046.011l.1.034c.011 0 .023.011.034.011.034.011.08.011.114.023h.034c.046 0 .1.011.148.011a.65.65 0 0 0 .148-.011h.034a.4.4 0 0 0 .114-.023c.011 0 .023-.011.034-.011l.1-.034c.011 0 .023-.011.046-.011a.4.4 0 0 0 .1-.046c.011 0 .011 0 .023-.011l23.512-11.4a1.378 1.378 0 0 0 .775-1.231V12.765c-.012-.012-.012-.023-.012-.034zm-24.88-9.848l20.333 9.859-7.488 3.636-20.333-9.859zm0 19.717l-20.333-9.858 9.71-4.707 20.333 9.859zm-22.077-7.658l20.709 10.041v25.45L21.535 40.392zm23.444 35.491v-25.45l9.721-4.719v6.656a1.368 1.368 0 1 0 2.735 0v-7.989l8.32-4.035v25.45z"
              transform="translate(-18.8)"/>
    </g>
</svg>
