<svg xmlns="http://www.w3.org/2000/svg" width="54.99" height="54.99" viewBox="0 0 54.99 54.99">
    <g>
        <path fill="none" d="M0 1h54.99v54.99H0z" transform="translate(0 -1)"/>
        <path fill="#fff" fill-rule="evenodd"
              d="M11.5 30.746v-16.5H6v16.5zM8.7 11.492a2.711 2.711 0 0 0 2.791-2.7 2.808 2.808 0 0 0-.742-2A2.563 2.563 0 0 0 8.794 6 2.708 2.708 0 0 0 6 8.794a2.693 2.693 0 0 0 .743 1.906 2.572 2.572 0 0 0 1.957.792zm22.046 19.254V20.98a7.592 7.592 0 0 0-2.09-5.213A5.484 5.484 0 0 0 24.422 14a5.578 5.578 0 0 0-4.674 2.607v-2.358h-5.5v16.5h5.5V21.26a3.068 3.068 0 0 1 .209-1.3 2.636 2.636 0 0 1 2.6-1.864c1.738 0 2.686 1.149 2.686 3.445v9.208z"
              transform="translate(0 -1) translate(10.496 8.747)"/>
    </g>
</svg>
