<svg xmlns="http://www.w3.org/2000/svg" id="save" width="64" height="64" viewBox="0 0 64 64">
    <defs>
        <style>
            .cls-1{fill:#fff}
        </style>
    </defs>
    <g id="Сгруппировать_82" transform="translate(0 15.147)">
        <g id="Сгруппировать_81">
            <path id="Контур_34"
                  d="M60.811 138.009l-2.9-.364a19.966 19.966 0 0 0-3.727-5.886l2.135-9.044a1.25 1.25 0 0 0-1.216-1.537h-.278a8.612 8.612 0 0 0-7.994 5.5 19.659 19.659 0 0 0-2.733-.864 1.25 1.25 0 0 0-.575 2.433 17.309 17.309 0 0 1 8.258 4.594 1.247 1.247 0 0 0 .3.312 17.4 17.4 0 0 1 3.756 6.067 1.25 1.25 0 0 0 1.02.813l3.645.456a1.143 1.143 0 0 1 1 1.133v6.3a1.143 1.143 0 0 1-1 1.132l-3.378.423a1.25 1.25 0 0 0-1.038.867 17.343 17.343 0 0 1-5.507 8.188 1.25 1.25 0 0 0-.452.963v6.909A1.126 1.126 0 0 1 49 167.531h-7.249a1.126 1.126 0 0 1-1.125-1.125v-2.633a1.25 1.25 0 0 0-1.25-1.25h-10.5a1.25 1.25 0 0 0-1.25 1.25v2.633a1.126 1.126 0 0 1-1.125 1.125h-7.252a1.126 1.126 0 0 1-1.125-1.125v-4.879a1.25 1.25 0 0 0-.654-1.1 17.374 17.374 0 0 1 8.275-32.648h1.566a1.25 1.25 0 0 0 0-2.5h-1.565a19.906 19.906 0 0 0-19.268 15.008h-.916a3.063 3.063 0 0 1 0-6.125 1.25 1.25 0 1 0 0-2.5 5.563 5.563 0 0 0 0 11.125h.454a19.875 19.875 0 0 0 9.608 19.468v4.151a3.629 3.629 0 0 0 3.625 3.625H26.5a3.629 3.629 0 0 0 3.625-3.625v-1.383h8v1.383a3.629 3.629 0 0 0 3.625 3.625H49a3.629 3.629 0 0 0 3.625-3.625v-6.333a19.829 19.829 0 0 0 5.587-8.21l2.6-.325A3.647 3.647 0 0 0 64 147.924v-6.3a3.647 3.647 0 0 0-3.189-3.615zm-8.73-8.239a19.934 19.934 0 0 0-2.982-2.019 6.1 6.1 0 0 1 4.384-3.922z"
                  class="cls-1" transform="translate(0 -121.178)"/>
        </g>
    </g>
    <g id="Сгруппировать_84" transform="translate(47.625 31.375)">
        <g id="Сгруппировать_83">
            <path id="Контур_35" d="M383.135 251.366a1.249 1.249 0 1 0 .366.884 1.259 1.259 0 0 0-.366-.884z"
                  class="cls-1" transform="translate(-381.001 -251)"/>
        </g>
    </g>
    <g id="Сгруппировать_86" transform="translate(35.405 7.292)">
        <g id="Сгруппировать_85">
            <path id="Контур_36"
                  d="M284.492 58.333a1.25 1.25 0 0 0-1.25 1.25v4.958a1.25 1.25 0 0 0 2.5 0v-4.958a1.25 1.25 0 0 0-1.25-1.25z"
                  class="cls-1" transform="translate(-283.242 -58.333)"/>
        </g>
    </g>
    <g id="Сгруппировать_88" transform="translate(35.405 2.756)">
        <g id="Сгруппировать_87">
            <path id="Контур_37" d="M285.375 22.416a1.249 1.249 0 1 0 .366.884 1.259 1.259 0 0 0-.366-.884z"
                  class="cls-1" transform="translate(-283.241 -22.05)"/>
        </g>
    </g>
    <g id="Сгруппировать_90" transform="translate(25.25)">
        <g id="Сгруппировать_89">
            <path id="Контур_38"
                  d="M203.25 0A1.25 1.25 0 0 0 202 1.25v2.125a1.25 1.25 0 0 0 2.5 0V1.25A1.25 1.25 0 0 0 203.25 0z"
                  class="cls-1" transform="translate(-202)"/>
        </g>
    </g>
    <g id="Сгруппировать_92" transform="translate(11.742 37.871)">
        <g id="Сгруппировать_91">
            <path id="Контур_39"
                  d="M96.438 304.219a1.25 1.25 0 0 0-2.5 0v.066a1.25 1.25 0 0 0 1.25 1.242h.012a1.25 1.25 0 0 0 1.242-1.258z"
                  class="cls-1" transform="translate(-93.938 -302.969)"/>
        </g>
    </g>
    <g id="Сгруппировать_94" transform="translate(12.582 42.433)">
        <g id="Сгруппировать_93">
            <path id="Контур_40"
                  d="M107.85 345.984a11.587 11.587 0 0 1-4.776-5.721 1.25 1.25 0 0 0-2.335.895 14.1 14.1 0 0 0 5.811 6.962 1.25 1.25 0 1 0 1.3-2.136z"
                  class="cls-1" transform="translate(-100.656 -339.46)"/>
        </g>
    </g>
    <g id="Сгруппировать_96" transform="translate(21.25 6.006)">
        <g id="Сгруппировать_95">
            <path id="Контур_41"
                  d="M175.25 48.052a5.25 5.25 0 1 0 5.25 5.25 5.256 5.256 0 0 0-5.25-5.25zm0 8A2.75 2.75 0 1 1 178 53.3a2.753 2.753 0 0 1-2.75 2.752z"
                  class="cls-1" transform="translate(-170 -48.052)"/>
        </g>
    </g>
    <g id="Сгруппировать_98" transform="translate(24.75 18.5)">
        <g id="Сгруппировать_97">
            <path id="Контур_42"
                  d="M215.5 156h-1.125a5.25 5.25 0 1 0-8.94 0h-6.185a1.25 1.25 0 0 0 0 2.5h16.25a1.25 1.25 0 0 0 0-2.5zm-5.595 0a2.75 2.75 0 1 1 2.75-2.75 2.753 2.753 0 0 1-2.75 2.75z"
                  class="cls-1" transform="translate(-198 -148)"/>
        </g>
    </g>
</svg>
