<svg xmlns="http://www.w3.org/2000/svg" width="30" height="30" viewBox="0 0 30 30">
    <g>
        <path fill="none" d="M0 1h30v30H0z" transform="translate(0 -1)"/>
        <path fill="#fff" fill-rule="evenodd"
              d="M29.5 6.7a11.228 11.228 0 0 1-2.9 2.93v.7a16.188 16.188 0 0 1-4.56 11.161 15.574 15.574 0 0 1-12.1 5.01A16.485 16.485 0 0 1 1 23.921a13.177 13.177 0 0 0 1.389.117 11.577 11.577 0 0 0 7.245-2.46 5.994 5.994 0 0 1-3.381-1.143A5.389 5.389 0 0 1 4.2 17.653a7.518 7.518 0 0 0 1.087.117 6.936 6.936 0 0 0 1.57-.235 5.937 5.937 0 0 1-3.351-1.962 5.305 5.305 0 0 1-1.359-3.6v-.06a5.624 5.624 0 0 0 2.656.705 5.284 5.284 0 0 1-2.594-4.751 5.525 5.525 0 0 1 .783-2.812 15.989 15.989 0 0 0 12.017 5.917 4.951 4.951 0 0 1-.12-1.289 5.406 5.406 0 0 1 1.691-4.042A5.745 5.745 0 0 1 20.744 4a5.664 5.664 0 0 1 4.227 1.815 11.075 11.075 0 0 0 3.744-1.405 5.234 5.234 0 0 1-2.6 3.165A10.212 10.212 0 0 0 29.5 6.7z"
              transform="translate(0 -1) translate(.5 1.5)"/>
    </g>
</svg>
